<?xml version="1.0" encoding="utf-8"?>
<!-- Svg Vector Icons : http://www.onlinewebfonts.com/icon -->
<!DOCTYPE svg PUBLIC "-//W3C//DTD SVG 1.1//EN" "http://www.w3.org/Graphics/SVG/1.1/DTD/svg11.dtd">
<svg version="1.1" xmlns="http://www.w3.org/2000/svg" xmlns:xlink="http://www.w3.org/1999/xlink" x="0px" y="0px" viewBox="0 0 1000 1000" enable-background="new 0 0 1000 1000" xml:space="preserve">
<metadata> Svg Vector Icons : http://www.onlinewebfonts.com/icon </metadata>
<g><path d="M663.3,500.1c0-45.1-16-83.6-47.9-115.5s-70.4-47.9-115.5-47.9c-45.1,0-83.6,16-115.5,47.9c-31.9,31.9-47.9,70.4-47.9,115.5c0,45.1,16,83.6,47.9,115.5c31.9,31.9,70.4,47.9,115.5,47.9c45.1,0,83.6-16,115.5-47.9C647.3,583.7,663.3,545.2,663.3,500.1z M990,430.5v141.6c0,5.1-1.7,10-5.1,14.7s-7.6,7.5-12.7,8.3l-118,17.9c-8.1,23-16.4,42.3-24.9,58.1c14.9,21.3,37.6,50.6,68.3,88.1c4.2,5.1,6.4,10.4,6.4,15.9c0,5.5-1.9,10.4-5.7,14.7c-11.5,15.7-32.5,38.7-63.1,68.9c-30.6,30.2-50.6,45.3-60,45.3c-5.1,0-10.6-1.9-16.6-5.7l-88.1-68.9c-18.7,9.8-38.1,17.9-58.1,24.3c-6.8,57.8-13,97.4-18.5,118.7c-3,11.9-10.6,17.9-23,17.9H429.3c-5.9,0-11.1-1.8-15.6-5.4c-4.5-3.6-6.9-8.2-7.4-13.7l-17.9-117.5c-20.9-6.8-40-14.7-57.4-23.6l-90,68.3c-4.2,3.8-9.6,5.7-15.9,5.7c-5.9,0-11.2-2.3-15.9-7c-53.6-48.5-88.7-84.3-105.3-107.2c-3-4.2-4.5-9.1-4.5-14.7c0-5.1,1.7-10,5.1-14.7c6.4-8.9,17.2-23.1,32.5-42.5c15.3-19.4,26.8-34.4,34.5-45c-11.5-21.3-20.2-42.3-26.1-63.1L28.5,592.5c-5.6-0.9-10-3.5-13.4-8c-3.4-4.5-5.1-9.5-5.1-15V427.9c0-5.1,1.7-10,5.1-14.7c3.4-4.7,7.4-7.5,12.1-8.3L145.8,387c5.9-19.5,14.2-39.1,24.9-58.7c-17-24.2-39.8-53.6-68.3-88.1c-4.2-5.1-6.4-10.2-6.4-15.3c0-4.2,1.9-9.1,5.7-14.7c11.1-15.3,32-38.2,62.9-68.6c30.9-30.4,51-45.7,60.3-45.7c5.6,0,11.1,2.1,16.6,6.4l88.1,68.3c18.7-9.8,38.1-17.9,58.1-24.3c6.8-57.8,13-97.4,18.5-118.7c3-11.9,10.6-17.9,23-17.9h141.6c5.9,0,11.1,1.8,15.6,5.4c4.5,3.6,6.9,8.2,7.4,13.7l17.9,117.5c20.9,6.8,40,14.7,57.4,23.6l90.6-68.3c3.8-3.8,8.9-5.7,15.3-5.7c5.6,0,10.9,2.1,15.9,6.4c54.9,50.6,90,86.8,105.3,108.5c3,3.4,4.5,8.1,4.5,14c0,5.1-1.7,10-5.1,14.7c-6.4,8.9-17.2,23.1-32.5,42.5c-15.3,19.4-26.8,34.4-34.5,45c11.1,21.3,19.8,42.1,26.1,62.6l116.8,17.9c5.6,0.9,10,3.5,13.4,8C988.3,419.9,990,424.9,990,430.5L990,430.5z"/></g>
</svg>