<svg id="Layer_1" data-name="Layer 1" xmlns="http://www.w3.org/2000/svg" viewBox="0 0 364 668.5"><defs><style>.cls-1{fill:none;}</style></defs><title>exit-door</title><rect class="cls-1" x="25" y="25" width="314" height="528" rx="22.36" ry="22.36"/><path d="M314,50V528H50V50H314m2.64-50H47.36A47.36,47.36,0,0,0,0,47.36V530.64A47.36,47.36,0,0,0,47.36,578H316.64A47.36,47.36,0,0,0,364,530.64V47.36A47.36,47.36,0,0,0,316.64,0Z"/><path d="M226.46,668.44,16.22,570.92A33,33,0,0,1,0,542.52V33C0,7.5,27.75-8.35,49.73,4.63L227.09,82.73V668.08A.42.42,0,0,1,226.46,668.44Z"/></svg>