<svg id="Layer_1" data-name="Layer 1" xmlns="http://www.w3.org/2000/svg" viewBox="0 0 426 660.12"><defs><style>.cls-1{fill:#020200;}</style></defs><title>exit-door2</title><path d="M753,144V629H427V144H753m26.09-50H398.39A21.39,21.39,0,0,0,377,115.39V642.91A36.09,36.09,0,0,0,413.1,679H780.58A22.42,22.42,0,0,0,803,656.58V117.91A23.91,23.91,0,0,0,779.09,94Z" transform="translate(-377 -94)"/><polygon class="cls-1" points="25 559.34 25 46.59 277 120.66 277 633.41 25 559.34"/><path d="M427,174l202,59.38V694L427,634.63V174m-29.87-60.11A20.18,20.18,0,0,0,377,134.06V657a20.16,20.16,0,0,0,13.09,18.88l261.69,76.92A20.11,20.11,0,0,0,679,733.94V211a20.16,20.16,0,0,0-13.09-18.88L404.22,115.18a20.17,20.17,0,0,0-7.08-1.3Z" transform="translate(-377 -94)"/></svg>