<svg id="Layer_1" data-name="Layer 1" xmlns="http://www.w3.org/2000/svg" viewBox="0 0 25.2 24.4"><defs><style>.cls-1{fill:#fff;}</style></defs><title>Hamburger Menu-clicked</title><path class="cls-1" d="M12.7,15.2H36.3c.4,0,.8-.6.8-1.2s-.4-1.2-.8-1.2H12.7c-.4,0-.8.6-.8,1.2S12.3,15.2,12.7,15.2Z" transform="translate(-11.9 -12.8)"/><path class="cls-1" d="M12.7,37.2H36.3c.4,0,.8-.6.8-1.2s-.4-1.2-.8-1.2H12.7c-.4,0-.8.6-.8,1.2S12.3,37.2,12.7,37.2Z" transform="translate(-11.9 -12.8)"/><path class="cls-1" d="M12.7,26.2H36.3c.4,0,.8-.6.8-1.2s-.4-1.2-.8-1.2H12.7c-.4,0-.8.6-.8,1.2S12.3,26.2,12.7,26.2Z" transform="translate(-11.9 -12.8)"/></svg>