<svg id="Layer_1" data-name="Layer 1" xmlns="http://www.w3.org/2000/svg" viewBox="0 0 996.02 1004.6"><defs><style>.cls-1{fill:#fff;stroke:#fff;stroke-miterlimit:10;stroke-width:16px;}</style></defs><title>lupa-thick-clicked</title><path class="cls-1" d="M399.2,84.9c173.3,0,314.3,141,314.3,314.3s-141,314.3-314.3,314.3S84.9,572.5,84.9,399.2,225.9,84.9,399.2,84.9m0-76.9C183.2,8,8,183.2,8,399.2S183.2,790.4,399.2,790.4,790.4,615.2,790.4,399.2,615.3,8,399.2,8Z"/><path class="cls-1" d="M949.5,996.6a38.23,38.23,0,0,1-27.3-11.4L627.3,687.4A38.47,38.47,0,0,1,682,633.3L976.9,931.1a38.45,38.45,0,0,1-27.4,65.5Z"/></svg>