<svg id="Layer_1" data-name="Layer 1" xmlns="http://www.w3.org/2000/svg" viewBox="0 0 996.04 1004.6"><defs><style>.cls-1{stroke:#000;stroke-miterlimit:10;stroke-width:16px;}</style></defs><title>lupa-thick</title><path class="cls-1" d="M401.2,82.6c173.3,0,314.3,141,314.3,314.3s-141,314.3-314.3,314.3S86.9,570.2,86.9,396.9,227.9,82.6,401.2,82.6m0-76.9C185.2,5.7,10,180.9,10,396.9S185.2,788.1,401.2,788.1,792.4,612.9,792.4,396.9,617.3,5.7,401.2,5.7Z" transform="translate(-2 2.3)"/><path class="cls-1" d="M951.5,994.3a38.23,38.23,0,0,1-27.3-11.4L629.3,685.1A38.47,38.47,0,0,1,684,631L978.9,928.8a38.45,38.45,0,0,1-27.4,65.5Z" transform="translate(-2 2.3)"/></svg>