<svg id="Layer_1" data-name="Layer 1" xmlns="http://www.w3.org/2000/svg" viewBox="0 0 971.14 888.5"><defs><style>.cls-1{fill:none;}.cls-1,.cls-2,.cls-3{stroke:#000;stroke-miterlimit:10;}.cls-1,.cls-3{stroke-width:60px;}.cls-2{stroke-width:10px;}</style></defs><title>orders</title><line class="cls-1" x1="485.57" y1="295.3" x2="485.57" y2="848.43"/><path class="cls-1" d="M933.12,698.25C918.75,703.57,535.9,847,515.8,854.33s-21.07,12-51.85.48L47.13,698.92s-13.5-4.26-13.5-23.06.19-474.75,0-493.16,18.64-22.87,18.64-22.87S467.84,38.83,480,34.76c7.57-3.49,19.42.29,19.42.29L927,160.13s17.77,9.11,17.77,20.73v498S944.57,694,933.12,698.25Z" transform="translate(-3.63 -3.28)"/><line class="cls-1" x1="485.57" y1="295.3" x2="42.53" y2="165.67"/><line class="cls-1" x1="485.57" y1="295.3" x2="928.13" y2="165.86"/><line class="cls-1" x1="252.06" y1="226.71" x2="706.85" y2="93.58"/><path class="cls-1" d="M163.93,397.22" transform="translate(-3.63 -3.28)"/><path class="cls-1" d="M229.18,292.87" transform="translate(-3.63 -3.28)"/><polygon class="cls-2" points="684.42 509.81 684.42 548.18 863.56 480.26 863.56 441.99 684.42 509.81"/><polygon class="cls-2" points="684.42 586.64 684.42 624.91 863.56 557.09 863.56 518.72 684.42 586.64"/><polygon class="cls-2" points="684.42 663.38 684.42 701.74 863.56 633.83 863.56 595.55 684.42 663.38"/><path class="cls-3" d="M196,409" transform="translate(-3.63 -3.28)"/><path class="cls-3" d="M196,305.08" transform="translate(-3.63 -3.28)"/><polygon class="cls-3" points="297.01 393.93 264 381.82 264 242.98 297.01 241.53 297.01 393.93"/></svg>