<svg id="Layer_1" data-name="Layer 1" xmlns="http://www.w3.org/2000/svg" viewBox="0 0 489.3 555.01"><defs><style>.cls-1{fill:none;}.cls-1,.cls-2{stroke:#fff;stroke-miterlimit:10;stroke-width:40px;}.cls-2{fill:#ffd641;}</style></defs><title>shopbag-menu-clicked</title><path class="cls-1" d="M452.6,535H36.7A16.73,16.73,0,0,1,20,518.3a10.87,10.87,0,0,1,.1-1.8L54.2,187a16.77,16.77,0,0,1,16.6-15H418.5a16.7,16.7,0,0,1,16.6,15l34.1,329.5a16.73,16.73,0,0,1-14.87,18.4h0A9.15,9.15,0,0,1,452.6,535Z" transform="translate(0)"/><line class="cls-1" x1="154.2" y1="289" x2="154.2" y2="105"/><line class="cls-1" x1="337.2" y1="289" x2="337.2" y2="105"/><path class="cls-1" d="M154.2,105c0-47,40.2-85,90-85" transform="translate(0)"/><path class="cls-1" d="M337.2,105c0-47-41.6-85-93-85" transform="translate(0)"/><circle class="cls-2" cx="154.7" cy="279.5" r="13.5"/><circle class="cls-2" cx="337.7" cy="279.5" r="13.5"/></svg>