<svg id="Layer_1" data-name="Layer 1" xmlns="http://www.w3.org/2000/svg" viewBox="0 0 494.3 560.01"><defs><style>.cls-1,.cls-2{fill:none;}.cls-1{stroke:#000102;}.cls-1,.cls-2,.cls-3{stroke-miterlimit:10;stroke-width:45px;}.cls-2,.cls-3{stroke:#000;}</style></defs><title>shopbag-ultra-thick</title><path class="cls-1" d="M457.6,540H41.7A16.73,16.73,0,0,1,25,523.3a10.87,10.87,0,0,1,.1-1.8L59.2,192a16.77,16.77,0,0,1,16.6-15H423.5a16.7,16.7,0,0,1,16.6,15l34.1,329.5a16.73,16.73,0,0,1-14.87,18.4h0A9.15,9.15,0,0,1,457.6,540Z" transform="translate(-2.5 -2.5)"/><line class="cls-2" x1="156.7" y1="291.5" x2="156.7" y2="107.5"/><line class="cls-1" x1="339.7" y1="291.5" x2="339.7" y2="107.5"/><path class="cls-2" d="M159.2,110c0-47,40.2-85,90-85" transform="translate(-2.5 -2.5)"/><path class="cls-2" d="M342.2,110c0-47-41.6-85-93-85" transform="translate(-2.5 -2.5)"/><circle class="cls-3" cx="157.2" cy="282" r="13.5"/><circle class="cls-3" cx="340.2" cy="282" r="13.5"/></svg>