<svg id="Layer_1" data-name="Layer 1" xmlns="http://www.w3.org/2000/svg" viewBox="0 0 479.36 545"><defs><style>.cls-1{fill:none;}.cls-1,.cls-2{stroke:#000;stroke-miterlimit:10;stroke-width:30px;}</style></defs><title>shopbag</title><path class="cls-1" d="M450.13,532.5H34.23A16.73,16.73,0,0,1,17.58,514L51.68,184.5a16.73,16.73,0,0,1,16.65-15H416a16.73,16.73,0,0,1,16.63,15L466.76,514a16.73,16.73,0,0,1-16.63,18.47Z" transform="translate(-2.49 -2.5)"/><line class="cls-1" x1="149.19" y1="284" x2="149.19" y2="100"/><line class="cls-1" x1="332.19" y1="284" x2="332.19" y2="100"/><path class="cls-1" d="M151.68,102.5c0-47,40.25-85,90-85" transform="translate(-2.49 -2.5)"/><path class="cls-1" d="M334.68,102.5c0-47-41.6-85-93-85" transform="translate(-2.49 -2.5)"/><circle class="cls-2" cx="149.69" cy="274.5" r="13.5"/><circle class="cls-2" cx="332.69" cy="274.5" r="13.5"/></svg>